<?xml version="1.0" encoding="UTF-8" standalone="no"?>
<!-- Created with Inkscape (http://www.inkscape.org/) -->

<svg
   width="27.406454mm"
   height="17.92556mm"
   viewBox="0 0 27.406454 17.92556"
   version="1.1"
   id="svg5"
   xmlns="http://www.w3.org/2000/svg"
   xmlns:svg="http://www.w3.org/2000/svg">
  <defs
     id="defs2" />
  <g
     id="layer1"
     transform="translate(-65.17453,-119.77291)">
    <g
       aria-label="SE"
       id="text1089"
       style="font-size:22.5778px;line-height:1.25;font-family:'MV Boli';-inkscape-font-specification:'MV Boli';letter-spacing:-1.32292px;stroke-width:0.264583">
      <path
         d="m 65.538336,134.55649 q 0.374827,0.13229 0.760678,0.30868 0.396875,0.17639 0.815799,0.34175 0.418924,0.15434 0.870921,0.26458 0.463021,0.11025 0.981164,0.11025 0.606338,0 1.223699,-0.14332 0.617362,-0.14331 1.201651,-0.41892 0.595313,-0.28663 1.135505,-0.68351 0.540191,-0.4079 0.992188,-0.93707 0.496094,-0.56224 0.826824,-1.01423 0.330729,-0.46303 0.529167,-0.8158 0.209462,-0.36381 0.297657,-0.61737 0.08819,-0.26458 0.08819,-0.45199 0,-0.27561 -0.187413,-0.47405 -0.187414,-0.20946 -0.507119,-0.34175 -0.308681,-0.13229 -0.705556,-0.18741 -0.396875,-0.0661 -0.826824,-0.0661 -0.253559,0 -0.595313,0.022 -0.341754,0.011 -0.694532,0.0331 -0.352778,0.011 -0.683508,0.0221 -0.330729,0.011 -0.573264,0.011 -0.363802,0 -0.760678,-0.0772 -0.385851,-0.0882 -0.760678,-0.2756 -0.374826,-0.18742 -0.694532,-0.50712 -0.319705,-0.31971 -0.529167,-0.79375 -0.06615,-0.15434 -0.121267,-0.36381 -0.05512,-0.20946 -0.05512,-0.45199 0,-0.26459 0.03307,-0.4961 0.0441,-0.24253 0.09922,-0.46302 0.15434,-0.55121 0.507118,-1.11345 0.363803,-0.57327 0.859897,-1.11346 0.507119,-0.54019 1.091407,-1.04731 0.595314,-0.50712 1.212675,-0.94809 0.628386,-0.452 1.2237,-0.80478 0.606337,-0.3638 1.12448,-0.61736 0.727605,-0.35278 1.477258,-0.50712 0.760678,-0.16536 1.499307,-0.16536 0.440973,0 0.837848,0.12127 0.396876,0.11024 0.694532,0.33072 0.308681,0.22049 0.48507,0.55122 0.176389,0.31971 0.176389,0.73863 0,0.24253 -0.05512,0.4079 -0.05512,0.16536 -0.143316,0.27561 -0.08819,0.0992 -0.198438,0.14331 -0.09922,0.0441 -0.209462,0.0441 -0.297657,0 -0.551216,-0.0661 -0.242535,-0.0661 -0.474046,-0.14331 -0.23151,-0.0882 -0.463021,-0.15434 -0.23151,-0.0772 -0.507118,-0.0772 -0.8158,0 -1.664672,0.33073 -0.837848,0.3197 -1.642623,0.82682 -0.793751,0.4961 -1.510332,1.11346 -0.705556,0.61736 -1.267796,1.20165 -0.297657,0.30868 -0.440973,0.61736 -0.132292,0.30868 -0.132292,0.58429 0,0.4079 0.352778,0.63941 0.352779,0.23151 0.859897,0.23151 0.297657,0 0.672483,-0.011 0.374827,-0.011 0.760678,-0.0221 0.396876,-0.022 0.760678,-0.0331 0.374827,-0.022 0.661459,-0.022 0.683508,0 1.311894,0.19844 0.628386,0.18742 1.113456,0.56224 0.48507,0.37483 0.771702,0.93707 0.297657,0.55122 0.297657,1.2678 0,0.44097 -0.132292,0.89297 -0.132292,0.45199 -0.363803,0.91501 -0.23151,0.452 -0.529167,0.904 -0.297656,0.44097 -0.628386,0.87092 -0.595313,0.7717 -1.333942,1.45521 -0.727605,0.68351 -1.554429,1.19063 -0.826824,0.50711 -1.752866,0.80477 -0.915019,0.29766 -1.885158,0.29766 -0.418924,0 -0.859897,-0.0772 -0.440973,-0.0772 -0.870921,-0.23151 -0.429949,-0.14332 -0.8158,-0.36381 -0.374826,-0.23151 -0.661459,-0.51814 -0.286632,-0.28663 -0.463021,-0.62839 -0.165365,-0.35277 -0.165365,-0.76067 0,-0.19844 0.05512,-0.37483 0.06615,-0.18741 0.308681,-0.18741 z m 5.600353,-13.59299 z"
         style="fill:#2a5adf"
         id="path33446" />
      <path
         d="m 78.128104,136.2873 q 0,-0.38585 0.110243,-0.8158 0.374827,-1.4993 0.870921,-2.93246 0.507118,-1.44419 0.915018,-2.86633 0.4079,-1.42213 0.672484,-2.39227 0.275607,-0.98117 0.485069,-1.6757 0.209462,-0.70556 0.385852,-1.21267 0.176389,-0.50712 0.385851,-1.00322 0.132291,-0.29765 0.286632,-0.61736 0.165365,-0.3197 0.352778,-0.58429 0.187413,-0.2756 0.385851,-0.44097 0.209462,-0.17639 0.429948,-0.17639 0.451997,0 0.683508,0.15434 0.242535,0.14332 0.297657,0.26459 l 0.09922,0.45199 q 0.165365,-0.011 0.429949,-0.0551 0.264583,-0.0551 0.529167,-0.11024 0.275608,-0.0551 0.507119,-0.11025 0.23151,-0.0551 0.352778,-0.0992 0.727605,-0.19844 1.344966,-0.34176 0.617362,-0.14331 1.168578,-0.23151 0.56224,-0.0992 1.069359,-0.14332 0.507118,-0.0441 1.025261,-0.0441 0.507119,0 0.826824,0.0551 0.319705,0.0551 0.507118,0.15434 0.187414,0.0882 0.25356,0.22049 0.07717,0.12126 0.07717,0.26458 0,0.13229 -0.07717,0.28663 -0.06615,0.14332 -0.231511,0.27561 -0.165365,0.13229 -0.429948,0.23151 -0.264584,0.0992 -0.661459,0.13229 -0.09922,0.022 -0.463022,0.0882 -0.352778,0.0551 -0.771702,0.13229 -0.418924,0.0661 -0.793751,0.13229 -0.374826,0.0661 -0.518142,0.0992 h 0.01102 q -0.06615,0.011 -0.319705,0.0882 -0.242535,0.0661 -0.595313,0.16537 -0.352779,0.0882 -0.771703,0.20946 -0.407899,0.12127 -0.815799,0.24254 -0.396875,0.11024 -0.738629,0.22048 -0.341754,0.0992 -0.551216,0.16537 -0.672483,0.26458 -1.058334,0.70555 -0.374827,0.42995 -0.595314,0.97014 -0.0441,0.0992 -0.132291,0.34176 -0.08819,0.23151 -0.198438,0.54019 -0.09922,0.29765 -0.220486,0.63941 -0.121268,0.34175 -0.231511,0.65043 -0.110243,0.30868 -0.198438,0.56224 -0.07717,0.25356 -0.110243,0.37483 -0.03307,0.11024 -0.0441,0.19844 -0.01102,0.0882 -0.01102,0.13229 0,0.0661 0.03307,0.0661 0.165365,0 0.683508,-0.14332 0.529167,-0.15434 1.223699,-0.37483 0.705557,-0.22048 1.499307,-0.47404 0.804775,-0.25356 1.53238,-0.47405 0.73863,-0.22048 1.311894,-0.3638 0.573265,-0.15434 0.826824,-0.15434 0.385851,0 0.518143,0.13229 0.132291,0.12127 0.132291,0.27561 0,0.39687 -0.286632,0.69453 -0.275608,0.29766 -0.694532,0.51814 -0.132292,0.0662 -0.496094,0.19844 -0.352778,0.12127 -0.771702,0.25356 -0.4079,0.13229 -0.782727,0.25356 -0.374826,0.12127 -0.540191,0.17639 -1.080383,0.41892 -1.763891,0.69453 -0.672483,0.26458 -1.091407,0.44097 -0.418924,0.16537 -0.650435,0.25356 -0.220486,0.0882 -0.418924,0.15434 -0.187413,0.0551 -0.418924,0.11025 -0.231511,0.0551 -0.63941,0.15434 -0.09922,0.23151 -0.231511,0.70555 -0.132292,0.46302 -0.253559,0.97014 -0.121268,0.4961 -0.209462,0.92605 -0.07717,0.42994 -0.07717,0.59531 0,0.19844 0.05512,0.29765 0.05512,0.0882 0.132292,0.12127 0.07717,0.0331 0.15434,0.0331 0.07717,0 0.121268,0 0.529167,0 1.267796,-0.15435 0.749654,-0.15434 1.477259,-0.40789 0.694532,-0.24254 1.212675,-0.52917 0.518142,-0.28663 0.970139,-0.52917 0.463022,-0.25356 0.89297,-0.41892 0.440973,-0.17639 0.959116,-0.18742 0.110243,0 0.253559,0.022 0.15434,0.0221 0.286632,0.0882 0.132292,0.0551 0.209462,0.15434 0.08819,0.0992 0.06615,0.25356 -0.0441,0.3197 -0.319705,0.62838 -0.275608,0.30868 -0.694532,0.59532 -0.418924,0.28663 -0.937067,0.55121 -0.518143,0.26458 -1.058334,0.50712 -0.540192,0.23151 -1.058335,0.42995 -0.518143,0.18741 -0.926042,0.33073 -1.014238,0.35278 -1.973353,0.51814 -0.959116,0.16537 -1.719794,0.16537 -0.837848,0 -1.289845,-0.31971 -0.440972,-0.30868 -0.440972,-1.03629 z"
         style="fill:#008000"
         id="path33448" />
    </g>
  </g>
</svg>
